<svg width="7" height="7" viewBox="0 0 7 7" fill="none" xmlns="http://www.w3.org/2000/svg">
<path d="M6.30151 3.22217V3.97217C6.30151 4.07633 6.26506 4.16488 6.19214 4.23779C6.11922 4.31071 6.03068 4.34717 5.92651 4.34717H4.30151V5.97217C4.30151 6.07633 4.26506 6.16488 4.19214 6.23779C4.11922 6.31071 4.03068 6.34717 3.92651 6.34717H3.17651C3.07235 6.34717 2.98381 6.31071 2.91089 6.23779C2.83797 6.16488 2.80151 6.07633 2.80151 5.97217V4.34717H1.17651C1.07235 4.34717 0.983805 4.31071 0.910889 4.23779C0.837972 4.16488 0.801514 4.07633 0.801514 3.97217V3.22217C0.801514 3.118 0.837972 3.02946 0.910889 2.95654C0.983805 2.88363 1.07235 2.84717 1.17651 2.84717H2.80151V1.22217C2.80151 1.118 2.83797 1.02946 2.91089 0.956542C2.98381 0.883626 3.07235 0.847167 3.17651 0.847167H3.92651C4.03068 0.847167 4.11922 0.883626 4.19214 0.956542C4.26506 1.02946 4.30151 1.118 4.30151 1.22217V2.84717H5.92651C6.03068 2.84717 6.11922 2.88363 6.19214 2.95654C6.26506 3.02946 6.30151 3.118 6.30151 3.22217Z" fill="#D1D1D1"/>
</svg>
