<svg width="97" height="70" viewBox="0 0 97 70" fill="none" xmlns="http://www.w3.org/2000/svg">
<g clip-path="url(#clip0)">
<path d="M94.1322 20.5129H41.0525C40.3054 20.5136 39.589 20.8131 39.0607 21.3456C38.5324 21.8781 38.2353 22.6002 38.2346 23.3533V32.0238C38.2353 32.7769 38.5324 33.499 39.0607 34.0315C39.589 34.564 40.3054 34.8635 41.0525 34.8642H94.1322C94.8794 34.8635 95.5957 34.564 96.1241 34.0315C96.6524 33.499 96.9495 32.7769 96.9502 32.0238V23.3533C96.9495 22.6002 96.6524 21.8781 96.1241 21.3456C95.5957 20.8131 94.8794 20.5136 94.1322 20.5129V20.5129Z" fill="#F2F2F2"/>
<path d="M77.189 67H100.811C100.861 67 100.909 66.9473 100.945 66.8535C100.98 66.7598 101 66.6326 101 66.5C101 66.3674 100.98 66.2402 100.945 66.1465C100.909 66.0527 100.861 66 100.811 66H77.189C77.1389 66 77.0908 66.0527 77.0554 66.1465C77.0199 66.2402 77 66.3674 77 66.5C77 66.6326 77.0199 66.7598 77.0554 66.8535C77.0908 66.9473 77.1389 67 77.189 67Z" fill="#3F3D56"/>
<path d="M80.8431 13.2734C81.0702 13.4079 81.2631 13.5874 81.4082 13.7993C81.5534 14.0112 81.6472 14.2504 81.6831 14.5C81.719 14.7496 81.6961 15.0036 81.616 15.244C81.5359 15.4844 81.4006 15.7054 81.2196 15.8915L83 19.4569L80.9535 21L78.5147 15.9318C78.2015 15.6259 78.0189 15.2229 78.0014 14.7992C77.9839 14.3755 78.1327 13.9604 78.4198 13.6327C78.7068 13.3051 79.112 13.0875 79.5586 13.0213C80.0052 12.955 80.4623 13.0448 80.8431 13.2734V13.2734Z" fill="#FFB8B8"/>
<path d="M90.759 14.3291C90.1955 14.0241 89.5234 13.9263 88.882 14.0558C88.2406 14.1854 87.6792 14.5324 87.3141 15.0249L83.671 19.9396L82.4063 17.4275C82.3273 17.2706 82.1874 17.1452 82.0129 17.0748C81.8385 17.0044 81.6414 16.9938 81.4589 17.0452L79.55 17.5825C79.4503 17.6105 79.3578 17.6563 79.278 17.717C79.1982 17.7778 79.1326 17.8523 79.0852 17.9362C79.0379 18.0201 79.0096 18.1117 79.002 18.2056C78.9945 18.2994 79.0079 18.3937 79.0414 18.4829L80.3481 21.9594C80.5134 22.3992 80.7896 22.7984 81.155 23.1258C81.5203 23.4533 81.965 23.6999 82.454 23.8464C82.9429 23.993 83.463 24.0354 83.9732 23.9704C84.4834 23.9054 84.97 23.7347 85.3947 23.4718V23.4718C85.5932 23.3489 85.7763 23.207 85.9408 23.0486L91.3096 17.8801C91.5703 17.6292 91.7654 17.3288 91.8806 17.0011C91.9958 16.6734 92.0282 16.3266 91.9754 15.9862C91.9226 15.6457 91.786 15.3202 91.5755 15.0335C91.365 14.7468 91.0861 14.5061 90.759 14.3291V14.3291Z" fill="#CCCCCC"/>
<path d="M79.3739 10.0001C79.2805 10.0022 79.1919 10.0384 79.1275 10.1007C79.0631 10.163 79.0283 10.2462 79.0306 10.3322L79.0606 11.445L79 11.4501L79.0218 12.2059L79.081 12.1991L79.1886 16.1857C79.1922 16.3222 79.2497 16.4527 79.3503 16.553C79.4509 16.6533 79.5877 16.7165 79.7352 16.7308L82.4893 16.9977C82.5564 17.0042 82.6242 16.9971 82.6879 16.9769C82.7517 16.9568 82.8099 16.924 82.8585 16.8809C82.907 16.8379 82.9447 16.7856 82.969 16.7277C82.9933 16.6698 83.0035 16.6077 82.9989 16.5458L82.5812 10.8691C82.5725 10.7499 82.5199 10.6369 82.4321 10.5488C82.3444 10.4608 82.2267 10.4028 82.0984 10.3844L79.4396 10.0043C79.4179 10.001 79.3959 9.9996 79.3739 10.0001V10.0001Z" fill="#3F3D56"/>
<path d="M81.5673 10.4753L79.951 10.2617C79.9219 10.2579 79.8951 10.246 79.8748 10.2279C79.8545 10.2098 79.8417 10.1865 79.8385 10.1616V10.1616C79.8349 10.1334 79.8204 10.107 79.7974 10.0865C79.7743 10.066 79.744 10.0526 79.7111 10.0482L79.3706 10.0032C79.3241 9.9971 79.2767 9.99971 79.2315 10.0109C79.1864 10.022 79.1447 10.0415 79.1093 10.0679C79.074 10.0943 79.0459 10.1269 79.027 10.1635C79.0082 10.2001 78.999 10.2398 79.0001 10.2798L79.1751 16.4552C79.1773 16.5319 79.2125 16.6051 79.2742 16.6611C79.3358 16.717 79.4195 16.7516 79.5093 16.7584L82.6917 16.9991C82.7323 17.0021 82.7732 16.9977 82.8116 16.9861C82.85 16.9745 82.885 16.956 82.9142 16.9318C82.9434 16.9077 82.9662 16.8784 82.9809 16.8461C82.9956 16.8138 83.002 16.7791 82.9995 16.7445L82.5701 10.7355C82.5638 10.6469 82.522 10.5629 82.4518 10.4973C82.3816 10.4317 82.2871 10.3885 82.184 10.3749L81.8251 10.3275C81.8119 10.3752 81.7781 10.417 81.7302 10.4444C81.6824 10.4718 81.6242 10.4828 81.5673 10.4753V10.4753Z" fill="white"/>
<path d="M87.9993 65L85.9667 64.9998L85 57L88 57.0004L87.9993 65Z" fill="#FFB8B8"/>
<path d="M81.5349 66.5312L88.3248 66.5318L88.3251 64.168L84.1585 64.1676C83.814 64.1676 83.4729 64.2287 83.1546 64.3475C82.8363 64.4663 82.5471 64.6403 82.3035 64.8598C82.0599 65.0793 81.8666 65.3399 81.7347 65.6267C81.6029 65.9134 81.535 66.2208 81.5349 66.5312V66.5312L81.5349 66.5312Z" fill="#2F2E41"/>
<path d="M94.9991 65L92.2889 64.9998L91 57L95 57.0004L94.9991 65Z" fill="#FFB8B8"/>
<path d="M88.1747 66.5312L94.9646 66.5318L94.9649 64.168L90.7983 64.1676C90.1026 64.1676 89.4353 64.4166 88.9433 64.8598C88.4513 65.3031 88.1748 65.9043 88.1747 66.5312L88.1747 66.5312Z" fill="#2F2E41"/>
<path d="M88.5 12C86.0147 12 84 10.2091 84 8C84 5.79086 86.0147 4 88.5 4C90.9853 4 93 5.79086 93 8C93 10.2091 90.9853 12 88.5 12Z" fill="#FFB8B8"/>
<path d="M85.4212 18.9699C85.4604 17.8783 85.8077 16.8128 86.4316 15.8704C87.0554 14.928 87.9359 14.1387 88.9929 13.5744C90.2327 12.9281 91.5898 12.676 92.6695 13.6312C93.3178 14.2191 93.837 14.9085 94.2006 15.6643C95.1993 17.7238 95.2646 20.0441 94.3831 22.1451L91.8134 28.4259L85.8657 28.996C85.754 29.0067 85.641 28.996 85.5344 28.9645C85.4278 28.9331 85.3301 28.8817 85.248 28.8138C85.1659 28.7459 85.1013 28.6632 85.0586 28.5712C85.0159 28.4793 84.9961 28.3803 85.0006 28.2809L85.4212 18.9699Z" fill="#2F2E41"/>
<path d="M91.4746 28C91.4746 28 95.982 29.4506 94.8035 35.5932C93.7461 41.1053 94.5864 59.4006 94.7701 63.0989C94.7788 63.2752 94.7081 63.4475 94.5727 63.5798C94.4373 63.7121 94.2478 63.7941 94.0438 63.8086L91.4127 63.9976C91.2066 64.0124 91.002 63.9573 90.8425 63.8438C90.6829 63.7304 90.5811 63.5677 90.5587 63.3905L89.1999 52.6301C89.1945 52.5879 89.1711 52.5489 89.1343 52.5207C89.0974 52.4926 89.0497 52.4772 89.0004 52.4778C88.9512 52.4783 88.9039 52.4946 88.8678 52.5235C88.8317 52.5525 88.8095 52.5919 88.8053 52.6343L87.7928 62.9882C87.7757 63.1627 87.6817 63.3248 87.53 63.4413C87.3784 63.5577 87.1807 63.6195 86.9777 63.614L84.7677 63.5537C84.6636 63.5508 84.5611 63.5303 84.4662 63.4933C84.3712 63.4563 84.2857 63.4035 84.2144 63.338C84.1432 63.2725 84.0876 63.1955 84.0509 63.1114C84.0141 63.0273 83.997 62.9379 84.0004 62.8481L85.3023 28.7175L91.4746 28Z" fill="#2F2E41"/>
<path d="M87.3833 7.7866C85.9077 8.35834 84.0233 7.69047 83.3099 6.3429C82.5964 4.99533 83.1611 3.17027 84.5304 2.39776C85.8997 1.62525 87.8682 2.02122 88.7857 3.2537C89.532 1.9835 91.487 1.65967 92.8294 2.36842C94.1717 3.07717 94.9029 4.56172 94.9896 6.01216C95.0763 7.4626 94.6095 8.89148 94.0401 10.241C93.1191 12.4239 90.154 13.5992 87.86 12.6908C88.9102 11.2131 88.7029 9.05061 87.3833 7.7866Z" fill="#2F2E41"/>
<path d="M81.2172 14C81.2691 14 81.3196 13.9905 81.3611 13.9727L81.3637 13.9716L81.9057 13.7353C81.9308 13.7243 81.9519 13.7106 81.9677 13.695C81.9835 13.6794 81.9938 13.6621 81.9979 13.6443C82.0021 13.6264 82 13.6082 81.9918 13.5908C81.9836 13.5734 81.9695 13.557 81.9503 13.5427C81.931 13.5284 81.907 13.5164 81.8797 13.5074C81.8523 13.4984 81.822 13.4925 81.7907 13.4901C81.7593 13.4878 81.7275 13.489 81.6969 13.4936C81.6663 13.4983 81.6377 13.5063 81.6126 13.5173L81.2615 13.6708L80.4319 13.0537C80.4127 13.0394 80.3887 13.0274 80.3613 13.0184C80.334 13.0094 80.3037 13.0035 80.2724 13.0012C80.241 12.9988 80.2092 13 80.1786 13.0047C80.1481 13.0093 80.1195 13.0174 80.0944 13.0283L80.0943 13.0284L80.0994 13.0324L80.0942 13.0284C80.0435 13.0505 80.0104 13.0833 80.0021 13.1194C79.9937 13.1554 80.0108 13.1919 80.0496 13.2208L81.0254 13.9463C81.048 13.963 81.077 13.9765 81.1102 13.9858C81.1435 13.9951 81.18 13.9999 81.217 13.9998L81.2172 14Z" fill="#922A2E"/>
<path d="M74.1821 3H21.1024C20.3553 3.00068 19.6389 3.30015 19.1106 3.83267C18.5822 4.36519 18.2851 5.08725 18.2845 5.84034V14.5109C18.2851 15.264 18.5822 15.986 19.1106 16.5185C19.6389 17.0511 20.3553 17.3505 21.1024 17.3512H74.1821C74.9292 17.3505 75.6456 17.0511 76.1739 16.5185C76.7022 15.986 76.9994 15.264 77 14.5109V5.84034C76.9994 5.08725 76.7022 4.36519 76.1739 3.83267C75.6456 3.30015 74.9292 3.00068 74.1821 3ZM76.7034 14.5109C76.7025 15.1846 76.4365 15.8304 75.9639 16.3068C75.4912 16.7832 74.8505 17.0513 74.1821 17.0522H21.1024C20.434 17.0513 19.7932 16.7832 19.3206 16.3068C18.848 15.8304 18.582 15.1846 18.5811 14.5109V5.84034C18.582 5.16662 18.848 4.52077 19.3206 4.04438C19.7932 3.56799 20.434 3.29994 21.1024 3.29898H74.1821C74.8505 3.29994 75.4912 3.56799 75.9639 4.04438C76.4365 4.52077 76.7025 5.16662 76.7034 5.84034V14.5109Z" fill="#3F3D56"/>
<path d="M31.9042 15.1192C30.9341 15.1192 29.9858 14.8293 29.1793 14.2861C28.3727 13.7429 27.744 12.9708 27.3728 12.0675C27.0016 11.1641 26.9044 10.1701 27.0937 9.21115C27.2829 8.25217 27.7501 7.37129 28.436 6.67991C29.1219 5.98852 29.9959 5.51768 30.9473 5.32693C31.8987 5.13617 32.8848 5.23407 33.7811 5.60825C34.6773 5.98242 35.4433 6.61606 35.9822 7.42904C36.5212 8.24201 36.8088 9.19782 36.8088 10.1756C36.8073 11.4863 36.2901 12.7428 35.3706 13.6696C34.4512 14.5964 33.2045 15.1177 31.9042 15.1192V15.1192Z" fill="#922A2E"/>
<path d="M66.9398 14.2119H41.4465C41.1318 14.2119 40.83 14.0859 40.6075 13.8617C40.385 13.6374 40.26 13.3332 40.26 13.016C40.26 12.6988 40.385 12.3946 40.6075 12.1704C40.83 11.9461 41.1318 11.8201 41.4465 11.8201H66.9398C67.2545 11.8201 67.5563 11.9461 67.7788 12.1704C68.0013 12.3946 68.1263 12.6988 68.1263 13.016C68.1263 13.3332 68.0013 13.6374 67.7788 13.8617C67.5563 14.0859 67.2545 14.2119 66.9398 14.2119V14.2119Z" fill="#CCCCCC"/>
<path d="M49.8838 9.12917H41.4465C41.1318 9.12917 40.83 9.00317 40.6075 8.77889C40.385 8.55461 40.26 8.25042 40.26 7.93324C40.26 7.61606 40.385 7.31187 40.6075 7.08759C40.83 6.86331 41.1318 6.7373 41.4465 6.7373H49.8838C50.1984 6.7373 50.5002 6.86331 50.7227 7.08759C50.9453 7.31187 51.0703 7.61606 51.0703 7.93324C51.0703 8.25042 50.9453 8.55461 50.7227 8.77889C50.5002 9.00317 50.1984 9.12917 49.8838 9.12917V9.12917Z" fill="#CCCCCC"/>
<path d="M31.6537 11.9147C31.532 11.9149 31.4136 11.8752 31.3162 11.8016L31.3102 11.7971L30.0389 10.8169C29.9799 10.7714 29.9304 10.7147 29.8931 10.65C29.8559 10.5852 29.8317 10.5137 29.8219 10.4395C29.8121 10.3653 29.817 10.2898 29.8361 10.2175C29.8553 10.1452 29.8884 10.0774 29.9336 10.018C29.9788 9.95859 30.0351 9.90875 30.0994 9.87132C30.1638 9.83389 30.2348 9.80961 30.3084 9.79987C30.382 9.79013 30.4568 9.79512 30.5286 9.81455C30.6003 9.83397 30.6675 9.86747 30.7263 9.9131L31.5498 10.5495L33.4955 7.99095C33.5406 7.93163 33.5969 7.88185 33.6611 7.84445C33.7253 7.80705 33.7962 7.78276 33.8697 7.77297C33.9432 7.76318 34.0179 7.76808 34.0896 7.7874C34.1612 7.80671 34.2284 7.84006 34.2872 7.88554L34.2874 7.88567L34.2753 7.90256L34.2877 7.88567C34.4064 7.97764 34.4841 8.11333 34.5037 8.26297C34.5233 8.41261 34.4832 8.56397 34.3922 8.68383L32.1035 11.692C32.0506 11.7613 31.9825 11.8173 31.9046 11.8559C31.8267 11.8944 31.741 11.9143 31.6542 11.914L31.6537 11.9147Z" fill="white"/>
<path d="M80.2625 44.0397H27.1829C26.4357 44.0404 25.7194 44.3398 25.191 44.8723C24.6627 45.4049 24.3656 46.1269 24.3649 46.88V55.5505C24.3656 56.3036 24.6627 57.0257 25.191 57.5582C25.7194 58.0907 26.4357 58.3902 27.1829 58.3909H80.2625C81.0097 58.3902 81.7261 58.0907 82.2544 57.5582C82.7827 57.0257 83.0798 56.3036 83.0805 55.5505V46.88C83.0798 46.1269 82.7827 45.4049 82.2544 44.8723C81.7261 44.3398 81.0097 44.0404 80.2625 44.0397ZM82.7839 55.5505C82.7829 56.2243 82.517 56.8701 82.0443 57.3465C81.5717 57.8229 80.9309 58.0909 80.2625 58.0919H27.1829C26.5145 58.0909 25.8737 57.8229 25.4011 57.3465C24.9284 56.8701 24.6625 56.2243 24.6616 55.5505V46.88C24.6625 46.2063 24.9284 45.5604 25.4011 45.0841C25.8737 44.6077 26.5145 44.3396 27.1829 44.3387H80.2625C80.9309 44.3396 81.5717 44.6077 82.0443 45.0841C82.517 45.5604 82.7829 46.2063 82.7839 46.88V55.5505Z" fill="#3F3D56"/>
<path d="M37.9847 56.159C37.0146 56.159 36.0663 55.8691 35.2598 55.3259C34.4532 54.7827 33.8245 54.0106 33.4533 53.1073C33.0821 52.2039 32.985 51.2099 33.1742 50.2509C33.3634 49.292 33.8306 48.4111 34.5165 47.7197C35.2024 47.0283 36.0764 46.5575 37.0278 46.3667C37.9792 46.176 38.9653 46.2739 39.8616 46.648C40.7578 47.0222 41.5238 47.6559 42.0627 48.4688C42.6017 49.2818 42.8893 50.2376 42.8893 51.2154C42.8878 52.526 42.3706 53.7826 41.4511 54.7094C40.5317 55.6362 39.285 56.1575 37.9847 56.159V56.159Z" fill="#922A2E"/>
<path d="M73.0203 55.2516H47.527C47.2123 55.2516 46.9105 55.1256 46.688 54.9013C46.4655 54.677 46.3405 54.3729 46.3405 54.0557C46.3405 53.7385 46.4655 53.4343 46.688 53.21C46.9105 52.9857 47.2123 52.8597 47.527 52.8597H73.0203C73.335 52.8597 73.6368 52.9857 73.8593 53.21C74.0818 53.4343 74.2068 53.7385 74.2068 54.0557C74.2068 54.3729 74.0818 54.677 73.8593 54.9013C73.6368 55.1256 73.335 55.2516 73.0203 55.2516V55.2516Z" fill="#CCCCCC"/>
<path d="M55.9642 50.1688H47.527C47.2123 50.1688 46.9105 50.0429 46.688 49.8186C46.4655 49.5943 46.3405 49.2901 46.3405 48.9729C46.3405 48.6557 46.4655 48.3515 46.688 48.1273C46.9105 47.903 47.2123 47.777 47.527 47.777H55.9642C56.2789 47.777 56.5807 47.903 56.8032 48.1273C57.0257 48.3515 57.1507 48.6557 57.1507 48.9729C57.1507 49.2901 57.0257 49.5943 56.8032 49.8186C56.5807 50.0429 56.2789 50.1688 55.9642 50.1688V50.1688Z" fill="#CCCCCC"/>
<path d="M37.7342 52.9542C37.6125 52.9544 37.494 52.9148 37.3967 52.8412L37.3906 52.8366L36.1194 51.8564C36.0604 51.811 36.0109 51.7543 35.9736 51.6895C35.9364 51.6247 35.9122 51.5532 35.9024 51.479C35.8926 51.4048 35.8974 51.3294 35.9166 51.2571C35.9358 51.1848 35.9689 51.117 36.0141 51.0575C36.0592 50.9981 36.1156 50.9483 36.1799 50.9109C36.2442 50.8734 36.3152 50.8492 36.3889 50.8394C36.4625 50.8297 36.5373 50.8347 36.609 50.8541C36.6807 50.8735 36.748 50.907 36.8068 50.9527L37.6302 51.5891L39.576 49.0305C39.6211 48.9712 39.6773 48.9214 39.7416 48.884C39.8058 48.8466 39.8766 48.8223 39.9502 48.8125C40.0237 48.8027 40.0984 48.8076 40.17 48.8269C40.2417 48.8463 40.3088 48.8796 40.3677 48.9251L40.3679 48.9252L40.3558 48.9421L40.3682 48.9252C40.4869 49.0172 40.5646 49.1529 40.5842 49.3025C40.6038 49.4522 40.5636 49.6035 40.4726 49.7234L38.184 52.7315C38.1311 52.8008 38.063 52.8569 37.9851 52.8954C37.9071 52.9339 37.8215 52.9538 37.7347 52.9536L37.7342 52.9542Z" fill="white"/>
<path d="M71.3753 23.3285H18.2956C17.5485 23.3292 16.8321 23.6286 16.3038 24.1612C15.7754 24.6937 15.4783 25.4157 15.4777 26.1688V34.8394C15.4783 35.5925 15.7754 36.3145 16.3038 36.847C16.8321 37.3795 17.5485 37.679 18.2956 37.6797H71.3753C72.1224 37.679 72.8388 37.3795 73.3671 36.847C73.8954 36.3145 74.1925 35.5925 74.1932 34.8394V26.1688C74.1925 25.4157 73.8954 24.6937 73.3671 24.1612C72.8388 23.6286 72.1224 23.3292 71.3753 23.3285V23.3285Z" fill="white"/>
<path d="M71.3753 23.3285H18.2956C17.5485 23.3292 16.8321 23.6286 16.3038 24.1612C15.7754 24.6937 15.4783 25.4157 15.4777 26.1688V34.8394C15.4783 35.5925 15.7754 36.3145 16.3038 36.847C16.8321 37.3795 17.5485 37.679 18.2956 37.6797H71.3753C72.1224 37.679 72.8388 37.3795 73.3671 36.847C73.8954 36.3145 74.1925 35.5925 74.1932 34.8394V26.1688C74.1925 25.4157 73.8954 24.6937 73.3671 24.1612C72.8388 23.6286 72.1224 23.3292 71.3753 23.3285V23.3285ZM73.8966 34.8394C73.8956 35.5131 73.6297 36.1589 73.1571 36.6353C72.6844 37.1117 72.0437 37.3798 71.3753 37.3807H18.2956C17.6272 37.3798 16.9864 37.1117 16.5138 36.6353C16.0412 36.1589 15.7752 35.5131 15.7743 34.8394V26.1688C15.7752 25.4951 16.0412 24.8493 16.5138 24.3729C16.9864 23.8965 17.6272 23.6284 18.2956 23.6275H71.3753C72.0437 23.6284 72.6844 23.8965 73.1571 24.3729C73.6297 24.8493 73.8956 25.4951 73.8966 26.1688V34.8394Z" fill="#3F3D56"/>
<path d="M29.0974 35.4477C28.1273 35.4477 27.1791 35.1578 26.3725 34.6146C25.5659 34.0714 24.9372 33.2993 24.566 32.396C24.1948 31.4926 24.0977 30.4986 24.2869 29.5396C24.4761 28.5807 24.9433 27.6998 25.6292 27.0084C26.3151 26.317 27.1891 25.8462 28.1405 25.6554C29.0919 25.4647 30.0781 25.5626 30.9743 25.9367C31.8705 26.3109 32.6365 26.9445 33.1754 27.7575C33.7144 28.5705 34.002 29.5263 34.002 30.5041C34.0005 31.8147 33.4833 33.0713 32.5639 33.9981C31.6444 34.9249 30.3977 35.4462 29.0974 35.4477V35.4477Z" fill="#922A2E"/>
<path d="M64.133 34.5403H38.6397C38.325 34.5403 38.0232 34.4143 37.8007 34.19C37.5782 33.9657 37.4532 33.6616 37.4532 33.3444C37.4532 33.0272 37.5782 32.723 37.8007 32.4987C38.0232 32.2744 38.325 32.1484 38.6397 32.1484H64.133C64.4477 32.1484 64.7495 32.2744 64.972 32.4987C65.1945 32.723 65.3195 33.0272 65.3195 33.3444C65.3195 33.6616 65.1945 33.9657 64.972 34.19C64.7495 34.4143 64.4477 34.5403 64.133 34.5403V34.5403Z" fill="#CCCCCC"/>
<path d="M47.077 29.4577H38.6397C38.4839 29.4577 38.3296 29.4267 38.1856 29.3666C38.0417 29.3065 37.9109 29.2184 37.8007 29.1074C37.6905 28.9963 37.6031 28.8645 37.5435 28.7194C37.4839 28.5743 37.4532 28.4188 37.4532 28.2617C37.4532 28.1047 37.4839 27.9492 37.5435 27.8041C37.6031 27.659 37.6905 27.5271 37.8007 27.4161C37.9109 27.305 38.0417 27.2169 38.1856 27.1568C38.3296 27.0967 38.4839 27.0658 38.6397 27.0658H47.077C47.3916 27.0658 47.6934 27.1918 47.9159 27.4161C48.1384 27.6404 48.2635 27.9445 48.2635 28.2617C48.2635 28.5789 48.1384 28.8831 47.9159 29.1074C47.6934 29.3317 47.3916 29.4577 47.077 29.4577V29.4577Z" fill="#CCCCCC"/>
<path d="M28.8469 32.2432C28.7252 32.2434 28.6067 32.2037 28.5094 32.1301L28.5033 32.1256L27.2321 31.1454C27.1731 31.0999 27.1236 31.0432 27.0863 30.9784C27.0491 30.9137 27.0249 30.8421 27.0151 30.7679C27.0053 30.6937 27.0101 30.6183 27.0293 30.546C27.0485 30.4737 27.0816 30.4059 27.1268 30.3465C27.172 30.2871 27.2283 30.2372 27.2926 30.1998C27.3569 30.1624 27.4279 30.1381 27.5016 30.1284C27.5752 30.1186 27.65 30.1236 27.7217 30.143C27.7935 30.1625 27.8607 30.196 27.9195 30.2416L28.7429 30.878L30.6887 28.3194C30.7338 28.2601 30.7901 28.2103 30.8543 28.1729C30.9185 28.1355 30.9894 28.1112 31.0629 28.1015C31.1364 28.0917 31.2111 28.0966 31.2827 28.1159C31.3544 28.1352 31.4215 28.1686 31.4804 28.214L31.4806 28.2142L31.4685 28.2311L31.4809 28.2142C31.5996 28.3061 31.6773 28.4418 31.6969 28.5915C31.7165 28.7411 31.6763 28.8925 31.5853 29.0123L29.2967 32.0204C29.2438 32.0898 29.1757 32.1458 29.0978 32.1843C29.0198 32.2229 28.9342 32.2428 28.8474 32.2425L28.8469 32.2432Z" fill="white"/>
<path d="M82.1435 22.122C82.3919 22.034 82.6603 21.9928 82.9298 22.001C83.1994 22.0093 83.4635 22.067 83.7035 22.1699C83.9436 22.2729 84.1537 22.4187 84.3192 22.597C84.4846 22.7753 84.6014 22.9818 84.6612 23.2019L88.8167 23.7978L89 26L83.1457 25.0895C82.6972 25.1491 82.2382 25.0689 81.8556 24.8641C81.4731 24.6593 81.1935 24.3442 81.07 23.9784C80.9464 23.6126 80.9875 23.2216 81.1853 22.8794C81.3832 22.5373 81.7241 22.2678 82.1435 22.122L82.1435 22.122Z" fill="#FFB8B8"/>
<path d="M89.1773 15.1963C88.6284 15.4316 88.1955 15.8594 87.9684 16.3911C87.7413 16.9228 87.7373 17.5175 87.9573 18.0519L90.1529 23.3848L87.3965 22.9013C87.2244 22.8711 87.0467 22.902 86.8967 22.9882C86.7468 23.0743 86.6351 23.2098 86.5826 23.3691L86.0331 25.0354C86.0044 25.1225 85.9942 25.2142 86.0032 25.305C86.0121 25.3959 86.04 25.4841 86.0852 25.5645C86.1304 25.645 86.1921 25.7159 86.2664 25.7733C86.3408 25.8307 86.4265 25.8733 86.5184 25.8986L90.1011 26.8857C90.5543 27.0106 91.0316 27.0335 91.4957 26.9527C91.9597 26.8719 92.3978 26.6895 92.7756 26.42C93.1534 26.1504 93.4605 25.801 93.673 25.3991C93.8854 24.9972 93.9973 24.5538 94 24.1036V24.1036C94.0012 23.8933 93.9785 23.6835 93.9324 23.4778L92.427 16.7669C92.3539 16.4411 92.2053 16.1349 91.9922 15.8709C91.779 15.6069 91.5067 15.3917 91.1952 15.2411C90.8836 15.0905 90.5407 15.0084 90.1915 15.0006C89.8424 14.9928 89.4958 15.0597 89.1773 15.1963Z" fill="#CCCCCC"/>
</g>
<defs>
<clipPath id="clip0">
<rect width="97" height="70" fill="white"/>
</clipPath>
</defs>
</svg>
