<svg width="99" height="96" viewBox="0 0 99 96" fill="none" xmlns="http://www.w3.org/2000/svg">
<g clip-path="url(#clip0)">
<path d="M90.7991 82.1311L86.2643 86.0173L89.8682 80.3883C87.0289 75.5954 82.3852 71.4531 82.3852 71.4531C82.3852 71.4531 72.7512 80.0451 72.7512 86.799C72.7512 93.5529 77.0645 95.9111 82.3852 95.9111C87.7058 95.9111 92.0191 93.5529 92.0191 86.799C92.0191 85.2958 91.5411 83.7015 90.7991 82.1311Z" fill="#F2F2F2"/>
<path d="M85.0981 86.2277V86.5606C85.0769 90.4302 84.3758 93.4495 83.0001 95.5755C82.9807 95.6068 82.9594 95.6365 82.9399 95.6678L82.7859 95.5805L82.639 95.4947C84.1651 93.199 84.7051 89.9539 84.7246 86.5787C84.7263 86.4699 84.7281 86.3595 84.7263 86.2491C84.721 84.8202 84.6272 83.3749 84.4767 81.9707C84.4661 81.8619 84.4537 81.7515 84.4413 81.6411C84.2324 79.7887 83.9314 78.0186 83.6233 76.481C83.6021 76.3722 83.5791 76.2634 83.556 76.1563C83.0231 73.5557 82.4796 71.6719 82.3557 71.255C82.3415 71.2039 82.3327 71.1758 82.3309 71.1693L82.4991 71.1248L82.5009 71.1231L82.6708 71.0786C82.6726 71.0852 82.7027 71.1792 82.7523 71.3538C82.9417 72.0065 83.4339 73.7781 83.9172 76.1151C83.9385 76.2206 83.9615 76.3294 83.9827 76.4381C84.2341 77.6857 84.4802 79.08 84.675 80.5435C84.7245 80.911 84.7688 81.2736 84.8078 81.6312C84.8219 81.7416 84.8343 81.852 84.8449 81.9608C85.0078 83.4787 85.0922 84.901 85.0981 86.2277Z" fill="white"/>
<path d="M83.9172 76.115C83.7986 76.1299 83.6782 76.1447 83.5561 76.1563C83.2243 76.188 82.891 76.204 82.5575 76.204C81.1362 76.2058 79.7326 75.9107 78.45 75.3405C78.3757 75.4278 78.3013 75.5151 78.2252 75.6041C79.5744 76.2172 81.0562 76.5351 82.5575 76.5337C82.9136 76.5336 83.2693 76.516 83.6233 76.4809C83.7437 76.4694 83.8641 76.4545 83.9828 76.4381C84.9619 76.3073 85.9141 76.0389 86.8066 75.6421C86.7305 75.5514 86.6562 75.4624 86.5836 75.3751C85.7388 75.7426 84.8403 75.992 83.9172 76.115V76.115Z" fill="white"/>
<path d="M84.8078 81.631C84.6856 81.6376 84.5635 81.6409 84.4413 81.6409C84.4041 81.6425 84.3652 81.6425 84.328 81.6425C82.7879 81.6426 81.2707 81.2959 79.9056 80.6321C78.5406 79.9684 77.3682 79.0072 76.4884 77.8306C76.4176 77.9278 76.3467 78.025 76.2777 78.1239C77.1947 79.3145 78.4032 80.2846 79.8032 80.9538C81.2031 81.623 82.7542 81.9721 84.328 81.9721C84.3776 81.9721 84.4272 81.9721 84.4767 81.9705C84.6006 81.9688 84.7228 81.9656 84.845 81.9606C86.7353 81.8705 88.5578 81.2754 90.0944 80.2466C90.0377 80.1494 89.9811 80.0521 89.9227 79.9549C88.4292 80.965 86.6516 81.5475 84.8078 81.631V81.631Z" fill="white"/>
<path d="M85.0982 86.2275C84.9742 86.2374 84.8503 86.244 84.7264 86.249C84.5936 86.2539 84.4608 86.2572 84.328 86.2572C82.2585 86.255 80.2455 85.6288 78.5904 84.4725C76.9352 83.3162 75.7269 81.6919 75.1464 79.8429C75.0667 79.9764 74.987 80.1082 74.9109 80.2417C75.565 82.0865 76.8269 83.6925 78.5174 84.8315C80.208 85.9706 82.2411 86.5847 84.328 86.5868C84.4608 86.5868 84.5936 86.5852 84.7246 86.5786C84.8503 86.5753 84.9742 86.5687 85.0982 86.5604C87.6014 86.3781 89.9367 85.3171 91.6312 83.5923C91.594 83.4703 91.5515 83.35 91.509 83.228C89.8724 84.9658 87.5728 86.0417 85.0982 86.2275V86.2275Z" fill="white"/>
<path d="M74.4919 20.7572L25.1687 14.9036C25.0359 14.8877 24.902 14.8797 24.7681 14.8794C24.636 14.8792 24.5041 14.8869 24.3732 14.9026C24.2424 14.9183 24.1129 14.9418 23.9855 14.9732C23.8566 15.0053 23.73 15.045 23.6066 15.0923C23.4857 15.1385 23.3679 15.1915 23.2539 15.251C23.1383 15.3109 23.0266 15.3772 22.9195 15.4494C22.8098 15.5234 22.7048 15.6033 22.6049 15.6884C22.5018 15.776 22.4037 15.8688 22.3112 15.9662C22.2163 16.0665 22.127 16.1712 22.0436 16.28C21.9593 16.3902 21.8802 16.5048 21.8064 16.6238C21.7325 16.7432 21.6639 16.8674 21.6007 16.9964C21.5375 17.1253 21.4798 17.2586 21.4276 17.3963C21.3736 17.5386 21.3263 17.6841 21.2857 17.8328C21.2451 17.9814 21.2111 18.1327 21.1838 18.2865C21.1571 18.4402 21.1367 18.5964 21.1225 18.7551C21.1082 18.9138 21.1011 19.0744 21.1011 19.2369C21.1017 19.3994 21.1088 19.5612 21.1225 19.7226C21.1361 19.8839 21.1566 20.044 21.1838 20.2027C21.2114 20.3621 21.2455 20.5198 21.2861 20.676C21.3268 20.8322 21.3741 20.9866 21.4281 21.1393C21.4802 21.2867 21.5379 21.4308 21.6011 21.5716C21.6643 21.7124 21.7329 21.8494 21.8068 21.9826C21.8807 22.1158 21.9597 22.2451 22.044 22.3707C22.1281 22.4967 22.2173 22.618 22.3117 22.7345C22.406 22.851 22.5039 22.9622 22.6053 23.068C22.7068 23.1731 22.8116 23.2723 22.9199 23.3656C23.0282 23.4588 23.1396 23.5459 23.2543 23.6268C23.3677 23.707 23.4854 23.7817 23.607 23.8506C23.7294 23.9201 23.8559 23.9833 23.9859 24.0397C24.112 24.0944 24.2415 24.1421 24.3736 24.1827C24.503 24.2225 24.6349 24.2549 24.7685 24.2797C24.9008 24.3043 25.0346 24.3212 25.1692 24.3303L74.4923 27.6888C74.6358 27.6985 74.78 27.6851 74.9186 27.6491C74.9891 27.6308 75.0579 27.6072 75.1242 27.5785C75.1935 27.5485 75.2602 27.5136 75.3239 27.4743C75.3884 27.4345 75.4501 27.3907 75.5085 27.3434C75.5697 27.2937 75.6278 27.2407 75.6824 27.1847C75.74 27.1255 75.7943 27.0635 75.845 26.999C75.8974 26.9326 75.9478 26.8618 75.9961 26.7867C76.0444 26.7116 76.0901 26.6332 76.1331 26.5516C76.1762 26.47 76.2165 26.3852 76.254 26.2973C76.2916 26.2095 76.3264 26.1186 76.3584 26.0247C76.3904 25.9308 76.4195 25.8341 76.4458 25.7347C76.4735 25.6318 76.4973 25.527 76.5174 25.4204C76.5374 25.3138 76.5545 25.2056 76.5687 25.0959C76.5825 24.9861 76.5928 24.8749 76.5996 24.7622C76.6065 24.6495 76.6099 24.5356 76.6099 24.4204C76.6094 24.3053 76.606 24.1908 76.5996 24.0768C76.5932 23.9628 76.583 23.8496 76.5687 23.7373C76.555 23.625 76.5378 23.5137 76.5174 23.4032C76.4969 23.2928 76.4731 23.1836 76.4458 23.0755C76.4195 22.971 76.3904 22.8689 76.3584 22.7692C76.3267 22.6708 76.2919 22.5739 76.254 22.4784C76.216 22.3829 76.1757 22.2903 76.1331 22.2006C76.0902 22.1111 76.0445 22.0242 75.9961 21.94C75.9476 21.8557 75.8973 21.7756 75.845 21.6995C75.7927 21.6234 75.7385 21.5514 75.6824 21.4833C75.6263 21.4151 75.5683 21.3514 75.5085 21.292C75.4502 21.2338 75.3886 21.1786 75.3239 21.1266C75.2606 21.0756 75.1939 21.0283 75.1242 20.9851C75.0585 20.9443 74.9898 20.9078 74.9186 20.876C74.8504 20.8456 74.7799 20.8201 74.7076 20.7998C74.6371 20.7801 74.5649 20.7659 74.4919 20.7572" fill="#922A2E"/>
<path d="M74.4918 33.9592L25.1687 32.8595C24.9011 32.8534 24.6338 32.8788 24.3731 32.9351C24.2416 32.9636 24.1121 32.9997 23.9854 33.0432C23.8559 33.0877 23.7294 33.1394 23.6065 33.198C23.4852 33.2558 23.3674 33.32 23.2538 33.39C23.138 33.4614 23.0263 33.5386 22.9194 33.6211C22.8097 33.7059 22.7047 33.7958 22.6048 33.8906C22.5033 33.9868 22.4054 34.0892 22.3112 34.1976C22.217 34.3064 22.1277 34.4196 22.0435 34.5375C21.9592 34.6553 21.8802 34.7775 21.8063 34.9041C21.7324 35.0307 21.6639 35.1615 21.6006 35.2965C21.5374 35.4315 21.4797 35.5704 21.4276 35.7131C21.3736 35.8608 21.3263 36.011 21.2856 36.1634C21.245 36.3159 21.211 36.4704 21.1838 36.6269C21.1571 36.7833 21.1366 36.9416 21.1224 37.1016C21.1082 37.2617 21.1011 37.4229 21.1011 37.5855C21.1016 37.748 21.1087 37.9093 21.1224 38.0692C21.136 38.2291 21.1565 38.3872 21.1838 38.5435C21.2113 38.699 21.2454 38.8529 21.2861 39.0051C21.3267 39.1574 21.374 39.3072 21.428 39.4547C21.4801 39.5978 21.5378 39.7367 21.601 39.8713C21.6643 40.0059 21.7328 40.1363 21.8067 40.2625C21.8806 40.3887 21.9597 40.5104 22.0439 40.6277C22.128 40.7446 22.2173 40.8571 22.3116 40.965C22.4059 41.0729 22.5038 41.1747 22.6053 41.2703C22.7051 41.3645 22.8101 41.4538 22.9198 41.5379C23.0268 41.6199 23.1384 41.6963 23.2542 41.7671C23.3679 41.8364 23.4856 41.8998 23.6069 41.9569C23.7298 42.0148 23.8564 42.0658 23.9859 42.1095C24.1126 42.1522 24.2421 42.1875 24.3735 42.2152C24.5037 42.2428 24.6356 42.2627 24.7684 42.2747C24.9016 42.2866 25.0354 42.2906 25.1691 42.2868L74.4918 40.89C74.5643 40.8879 74.6365 40.8802 74.7075 40.8668C74.7794 40.8532 74.85 40.8342 74.9185 40.8099C74.9894 40.7846 75.0582 40.7544 75.1242 40.7194C75.1937 40.6826 75.2604 40.6413 75.3238 40.596C75.3885 40.5498 75.4501 40.5001 75.5084 40.4472C75.5697 40.3917 75.6277 40.3331 75.6823 40.2718C75.7383 40.2094 75.7925 40.1423 75.8449 40.0705C75.8974 39.9987 75.9477 39.9231 75.996 39.8437C76.0443 39.7638 76.09 39.681 76.1331 39.5953C76.1761 39.5096 76.2164 39.421 76.2539 39.3295C76.2916 39.2365 76.3264 39.1419 76.3583 39.0456C76.3903 38.9493 76.4194 38.8501 76.4457 38.748C76.4734 38.6435 76.4973 38.537 76.5173 38.4284C76.5374 38.3199 76.5545 38.21 76.5687 38.0989C76.5825 37.9874 76.5928 37.875 76.5996 37.7617C76.6064 37.6483 76.6098 37.534 76.6098 37.4188C76.6094 37.3047 76.606 37.1907 76.5996 37.0768C76.5932 36.963 76.5829 36.8505 76.5687 36.7396C76.5549 36.6282 76.5378 36.5185 76.5173 36.4105C76.4969 36.3024 76.473 36.1955 76.4457 36.0897C76.4193 35.9876 76.3901 35.8881 76.3581 35.7913C76.3262 35.6945 76.2914 35.6004 76.2539 35.5092C76.2165 35.4179 76.1763 35.3295 76.1333 35.2439C76.0902 35.1584 76.0445 35.0759 75.9962 34.9966C75.9478 34.9171 75.8974 34.8417 75.8451 34.7704C75.7929 34.6991 75.7387 34.6323 75.6825 34.5698C75.6279 34.5089 75.5699 34.4506 75.5086 34.3954C75.4503 34.3429 75.3887 34.2936 75.3241 34.2479C75.2606 34.2029 75.1939 34.1621 75.1244 34.1256C75.0583 34.0912 74.9895 34.0615 74.9185 34.0368C74.8499 34.0128 74.7794 33.9942 74.7075 33.981C74.6364 33.9681 74.5643 33.9608 74.4918 33.9592" fill="#E4E4E4"/>
<path d="M74.4919 46.336L25.1687 49.6938C25.0342 49.703 24.9004 49.7199 24.7681 49.7444C24.6344 49.7693 24.5026 49.8017 24.3732 49.8414C24.241 49.882 24.1116 49.9298 23.9855 49.9845C23.8555 50.0409 23.729 50.104 23.6066 50.1735C23.485 50.2425 23.3673 50.3172 23.2539 50.3973C23.1391 50.4789 23.0276 50.566 22.9195 50.6586C22.8114 50.7516 22.7065 50.8508 22.6049 50.9562C22.5033 51.0616 22.4054 51.1727 22.3112 51.2897C22.217 51.407 22.1278 51.5284 22.0436 51.6539C21.9593 51.7794 21.8802 51.9087 21.8064 52.0419C21.7325 52.1752 21.6639 52.3123 21.6007 52.453C21.5375 52.5937 21.4798 52.7378 21.4276 52.8853C21.3736 53.0376 21.3263 53.192 21.2857 53.3485C21.2451 53.505 21.2111 53.6626 21.1838 53.8213C21.1571 53.9802 21.1367 54.1403 21.1225 54.3016C21.1082 54.4628 21.1011 54.6247 21.1011 54.7872C21.1017 54.9497 21.1088 55.1104 21.1225 55.2691C21.1361 55.4278 21.1566 55.5841 21.1838 55.7379C21.2114 55.8921 21.2455 56.0434 21.2861 56.1918C21.3268 56.3402 21.3741 56.4857 21.4281 56.6282C21.4802 56.766 21.5379 56.8994 21.6011 57.0282C21.6643 57.1571 21.7329 57.2813 21.8068 57.4007C21.8807 57.5202 21.9597 57.6348 22.044 57.7445C22.1274 57.8533 22.2167 57.9581 22.3117 58.0584C22.4041 58.1558 22.5022 58.2485 22.6053 58.3361C22.7052 58.4213 22.8103 58.5011 22.9199 58.5752C23.0271 58.6474 23.1387 58.7136 23.2543 58.7736C23.3683 58.8331 23.4861 58.8861 23.607 58.9323C23.7304 58.9795 23.857 59.0193 23.9859 59.0513C24.1134 59.0827 24.2428 59.1063 24.3736 59.1219C24.5045 59.1376 24.6365 59.1454 24.7685 59.1451C24.9025 59.1449 25.0363 59.1368 25.1692 59.1209L74.4919 53.2688C74.5649 53.2601 74.6371 53.2458 74.7076 53.2261C74.7799 53.2058 74.8504 53.1803 74.9186 53.1499C74.9898 53.1181 75.0585 53.0816 75.1242 53.0408C75.1939 52.9976 75.2606 52.9503 75.3239 52.8994C75.3886 52.8473 75.4502 52.7921 75.5085 52.7339C75.5676 52.6744 75.6255 52.6106 75.6824 52.5427C75.7384 52.4747 75.7926 52.4026 75.845 52.3264C75.8974 52.2502 75.9478 52.1701 75.9961 52.086C76.0444 52.0024 76.0901 51.9155 76.1331 51.8253C76.1762 51.7351 76.2165 51.6425 76.254 51.5476C76.2916 51.4522 76.3264 51.3547 76.3584 51.2549C76.3904 51.1552 76.4195 51.0531 76.4458 50.9486C76.4735 50.8404 76.4973 50.7311 76.5174 50.6207C76.5374 50.5103 76.5545 50.3989 76.5687 50.2866C76.5825 50.1743 76.5928 50.0612 76.5996 49.9472C76.6065 49.8332 76.6099 49.7186 76.6099 49.6034C76.6093 49.4888 76.6058 49.3752 76.5994 49.2626C76.593 49.1499 76.5827 49.0387 76.5685 48.9289C76.5549 48.8187 76.5378 48.7103 76.5174 48.6037C76.4969 48.4971 76.4731 48.3924 76.4458 48.2895C76.4195 48.1899 76.3904 48.0932 76.3584 47.9994C76.3268 47.9057 76.2921 47.8148 76.2542 47.7268C76.2162 47.6389 76.176 47.5541 76.1333 47.4725C76.09 47.3916 76.0441 47.3134 75.9957 47.238C75.9472 47.1626 75.8968 47.0919 75.8446 47.0257C75.7939 46.9612 75.7396 46.8993 75.6819 46.8401C75.6274 46.784 75.5693 46.731 75.508 46.6813C75.4497 46.634 75.388 46.5903 75.3235 46.5504C75.2598 46.5111 75.1931 46.4763 75.1238 46.4463C75.0574 46.4175 74.9886 46.3939 74.9181 46.3756C74.7796 46.3397 74.6354 46.3262 74.4919 46.336" fill="#E4E4E4"/>
<path d="M5.47107 32.3863C5.30661 32.3976 5.14296 32.4174 4.9809 32.4458C4.81778 32.4742 4.65649 32.511 4.49776 32.5561C4.3366 32.6019 4.17823 32.6558 4.02335 32.7176C3.86483 32.7808 3.70997 32.8516 3.55939 32.9298C3.41205 33.0069 3.26805 33.0908 3.12739 33.1814C2.98673 33.272 2.85012 33.3693 2.71756 33.4734C2.58515 33.5772 2.45663 33.6879 2.33203 33.8055C2.20743 33.9231 2.08737 34.0471 1.97186 34.1775C1.85635 34.3079 1.74688 34.443 1.64344 34.5828C1.54 34.7226 1.44296 34.8666 1.35232 35.0149C1.26252 35.1634 1.17855 35.3159 1.10041 35.4725C1.02226 35.6291 0.951226 35.7894 0.88729 35.9532C0.820656 36.1232 0.762331 36.2949 0.712318 36.4684C0.662305 36.642 0.620604 36.8169 0.587216 36.9934C0.553685 37.1698 0.528539 37.3474 0.511774 37.5262C0.495008 37.705 0.486629 37.8846 0.486633 38.0648C0.486633 38.2451 0.495013 38.4231 0.511774 38.5987C0.528534 38.7743 0.55368 38.9473 0.587216 39.1175C0.620605 39.2877 0.662306 39.4549 0.712318 39.619C0.76233 39.7831 0.820443 39.9439 0.886653 40.1013C0.951155 40.2532 1.02219 40.4002 1.09977 40.5423C1.17645 40.6829 1.26067 40.8198 1.3521 40.9526C1.44211 41.0828 1.53928 41.2086 1.64323 41.3295C1.74618 41.4496 1.85588 41.5647 1.97186 41.6741C2.08592 41.7816 2.20615 41.8834 2.33203 41.9788C2.45529 42.0723 2.58407 42.1592 2.71777 42.2393C2.98163 42.3974 3.26408 42.5268 3.5596 42.625C3.86254 42.7257 4.17736 42.7923 4.49732 42.8233C4.65782 42.8387 4.81914 42.8454 4.98047 42.8432C5.14439 42.841 5.30804 42.8302 5.47064 42.8108C5.63471 42.7914 5.7975 42.7635 5.95826 42.7273C6.11951 42.691 6.27852 42.6466 6.43458 42.5942C6.59242 42.5412 6.74715 42.4805 6.89812 42.4123C7.05194 42.3428 7.20189 42.2661 7.34738 42.1826C7.48903 42.1003 7.62699 42.0121 7.76126 41.9179C7.89552 41.8237 8.02559 41.7234 8.15148 41.6168C8.27736 41.5102 8.39891 41.3977 8.51612 41.2795C8.63334 41.1613 8.74601 41.0372 8.85413 40.9073C8.96296 40.7776 9.06541 40.6439 9.16145 40.5064C9.2575 40.3688 9.34744 40.2277 9.43127 40.0828C9.5151 39.938 9.59267 39.7898 9.66399 39.6383C9.73532 39.4867 9.80032 39.3319 9.859 39.174C9.91981 39.0106 9.97302 38.8457 10.0186 38.6795C10.0642 38.5132 10.1023 38.3458 10.1329 38.1771C10.1633 38.0084 10.1861 37.8388 10.2015 37.6683C10.2168 37.4978 10.2245 37.3266 10.2245 37.1547C10.2244 36.9827 10.2167 36.8129 10.2015 36.6452C10.1863 36.4775 10.1634 36.3122 10.1329 36.1492C10.1025 35.9866 10.0644 35.8263 10.0186 35.6684C9.97288 35.5104 9.91967 35.3555 9.859 35.2035C9.80004 35.0565 9.73503 34.9138 9.66399 34.7756C9.59196 34.6378 9.51403 34.5041 9.4302 34.3745C9.26426 34.1183 9.07128 33.8782 8.85414 33.6577C8.74757 33.5493 8.63504 33.446 8.51698 33.3484C8.40072 33.2527 8.279 33.1628 8.15234 33.0792C8.02688 32.9965 7.89661 32.9202 7.76211 32.8509C7.62771 32.7816 7.48925 32.7193 7.34738 32.6644C7.05447 32.5508 6.74814 32.4699 6.4348 32.4234C6.2771 32.4 6.11805 32.3852 5.95848 32.3791C5.79592 32.373 5.63312 32.3755 5.47086 32.3867" fill="#E4E4E4"/>
<path d="M5.47107 51.0346C5.30661 51.0459 5.14296 51.0657 4.9809 51.0941C4.81778 51.1225 4.65649 51.1593 4.49776 51.2044C4.3366 51.2502 4.17823 51.3041 4.02335 51.3659C3.86483 51.4291 3.70997 51.4999 3.55939 51.5782C3.41205 51.6553 3.26805 51.7391 3.12739 51.8297C2.98673 51.9203 2.85012 52.0176 2.71756 52.1217C2.58515 52.2256 2.45663 52.3363 2.33203 52.4538C2.20743 52.5714 2.08737 52.6954 1.97186 52.8258C1.85635 52.9562 1.74688 53.0913 1.64344 53.2311C1.54 53.3709 1.44296 53.5149 1.35232 53.6632C1.26252 53.8117 1.17855 53.9643 1.10041 54.1208C1.02226 54.2774 0.951226 54.4377 0.88729 54.6015C0.820656 54.7715 0.762331 54.9432 0.712318 55.1167C0.662305 55.2903 0.620604 55.4652 0.587216 55.6417C0.553685 55.8181 0.528539 55.9957 0.511774 56.1745C0.495008 56.3533 0.486629 56.5329 0.486633 56.7131C0.486633 56.8934 0.495013 57.0714 0.511774 57.247C0.528534 57.4226 0.55368 57.5956 0.587216 57.7658C0.620605 57.936 0.662306 58.1032 0.712318 58.2673C0.76233 58.4314 0.820443 58.5922 0.886653 58.7496C0.951155 58.9015 1.02219 59.0485 1.09977 59.1906C1.17645 59.3312 1.26067 59.4681 1.3521 59.6008C1.44211 59.7311 1.53928 59.8569 1.64323 59.9778C1.74618 60.0979 1.85588 60.213 1.97186 60.3224C2.08592 60.4299 2.20615 60.5317 2.33203 60.6271C2.45529 60.7206 2.58407 60.8075 2.71777 60.8876C2.98163 61.0457 3.26408 61.1751 3.5596 61.2732C3.86254 61.374 4.17736 61.4406 4.49732 61.4716C4.65782 61.487 4.81914 61.4937 4.98047 61.4915C5.14439 61.4893 5.30804 61.4785 5.47064 61.4591C5.63471 61.4397 5.7975 61.4118 5.95826 61.3756C6.11951 61.3393 6.27852 61.2949 6.43458 61.2425C6.59242 61.1895 6.74715 61.1288 6.89812 61.0606C7.05194 60.9911 7.20189 60.9144 7.34738 60.8308C7.48903 60.7486 7.62699 60.6604 7.76126 60.5662C7.89552 60.472 8.02559 60.3716 8.15148 60.265C8.27736 60.1585 8.39891 60.046 8.51612 59.9278C8.63334 59.8096 8.74601 59.6855 8.85413 59.5556C8.96296 59.4259 9.06541 59.2922 9.16145 59.1547C9.2575 59.0171 9.34744 58.876 9.43127 58.7311C9.5151 58.5863 9.59267 58.4381 9.66399 58.2865C9.73532 58.135 9.80032 57.9802 9.859 57.8223C9.91981 57.6589 9.97302 57.494 10.0186 57.3278C10.0642 57.1615 10.1023 56.9941 10.1329 56.8254C10.1633 56.6567 10.1861 56.4871 10.2015 56.3166C10.2168 56.1461 10.2245 55.9749 10.2245 55.803C10.2244 55.631 10.2167 55.4612 10.2015 55.2935C10.1863 55.1258 10.1634 54.9605 10.1329 54.7975C10.1025 54.6349 10.0644 54.4746 10.0186 54.3167C9.97288 54.1587 9.91967 54.0038 9.859 53.8518C9.80004 53.7048 9.73503 53.5621 9.66399 53.4239C9.59196 53.2861 9.51403 53.1524 9.4302 53.0228C9.26426 52.7666 9.07128 52.5265 8.85414 52.306C8.74757 52.1976 8.63504 52.0943 8.51698 51.9967C8.40072 51.901 8.279 51.8111 8.15234 51.7275C8.02688 51.6448 7.89661 51.5685 7.76211 51.4992C7.62771 51.4299 7.48925 51.3676 7.34738 51.3127C7.05447 51.1991 6.74815 51.1182 6.4348 51.0717C6.2771 51.0483 6.11805 51.0335 5.95848 51.0274C5.79592 51.0213 5.63312 51.0238 5.47086 51.035" fill="#E4E4E4"/>
<path d="M5.47192 12.1841C5.30836 12.1804 5.14471 12.1854 4.98175 12.199C4.81946 12.2126 4.65815 12.2348 4.49861 12.2657C4.33816 12.2969 4.17976 12.3366 4.0242 12.3847C3.86624 12.4334 3.71135 12.4903 3.56024 12.5551C3.41234 12.6185 3.26814 12.6892 3.12825 12.7668C2.98698 12.8452 2.85018 12.9303 2.71842 13.0219C2.58452 13.115 2.45578 13.2143 2.33267 13.3195C2.2075 13.4265 2.08723 13.5399 1.97186 13.6597C1.85635 13.7797 1.74688 13.9049 1.64344 14.0355C1.54 14.166 1.44296 14.3013 1.35232 14.4414C1.2621 14.5833 1.17791 14.7287 1.09977 14.8776C1.02163 15.0265 0.950591 15.1803 0.886653 15.3391C0.820445 15.5027 0.762332 15.669 0.712319 15.838C0.662306 16.007 0.620605 16.1782 0.587217 16.3516C0.553686 16.5255 0.52854 16.7009 0.511775 16.8777C0.495009 17.0546 0.48663 17.2331 0.486634 17.4134C0.486634 17.5934 0.495014 17.7719 0.511775 17.949C0.528535 18.1261 0.553681 18.3013 0.587217 18.4745C0.620606 18.6478 0.662307 18.8187 0.712319 18.9874C0.762331 19.156 0.820444 19.322 0.886653 19.4853C0.951156 19.6431 1.02219 19.7965 1.09977 19.9456C1.17792 20.0941 1.26231 20.2382 1.35295 20.3779C1.44359 20.5175 1.54063 20.6522 1.64407 20.782C1.74737 20.9121 1.85684 21.0367 1.97249 21.1557C2.08815 21.2748 2.2082 21.3872 2.33266 21.493C2.45512 21.5978 2.58323 21.6967 2.71649 21.7894C2.84827 21.8801 2.98507 21.9644 3.12632 22.0419C3.26624 22.1187 3.41044 22.1885 3.55831 22.251C3.70946 22.315 3.86436 22.3709 4.02228 22.4187C4.33302 22.5123 4.65432 22.5722 4.97982 22.5972C5.30576 22.6224 5.6337 22.6131 5.9574 22.5696C6.11788 22.548 6.27692 22.518 6.43373 22.4796C6.59094 22.441 6.74569 22.3942 6.89726 22.3395C7.05061 22.2842 7.20058 22.221 7.34652 22.1504C7.48883 22.0816 7.62725 22.0061 7.76125 21.9241C7.89603 21.8415 8.02626 21.7527 8.15147 21.658C8.27735 21.5628 8.3989 21.4614 8.51612 21.3537C8.63334 21.2461 8.746 21.1322 8.85413 21.0121C8.96296 20.892 9.0654 20.7676 9.16145 20.6387C9.25749 20.5099 9.34743 20.3769 9.43126 20.2396C9.51537 20.1023 9.59295 19.9611 9.66399 19.816C9.73503 19.6709 9.80003 19.5223 9.85899 19.3703C9.9198 19.2123 9.97301 19.0523 10.0186 18.8902C10.0642 18.728 10.1023 18.564 10.1329 18.3982C10.1633 18.2317 10.1861 18.0638 10.2015 17.8947C10.2168 17.7255 10.2245 17.555 10.2245 17.383C10.2244 17.2112 10.2167 17.0407 10.2015 16.8716C10.1863 16.7024 10.1634 16.5351 10.1329 16.3695C10.1024 16.2038 10.0644 16.0399 10.0186 15.8779C9.97287 15.7159 9.91966 15.5561 9.85899 15.3986C9.80003 15.2463 9.73503 15.0979 9.66399 14.9532C9.59295 14.8085 9.51502 14.6676 9.4302 14.5304C9.34637 14.3945 9.25643 14.2622 9.16038 14.1337C9.06432 14.0051 8.96224 13.8813 8.85413 13.7623C8.74672 13.6434 8.63433 13.5304 8.51697 13.4232C8.39961 13.3161 8.27806 13.2154 8.15232 13.1211C8.02719 13.027 7.89702 12.9388 7.76231 12.8568C7.6283 12.7756 7.48987 12.7008 7.34758 12.6329C7.20162 12.5631 7.05164 12.5008 6.89833 12.4464C6.74671 12.3926 6.59196 12.3467 6.43479 12.3091C6.27793 12.2716 6.1189 12.2425 5.95847 12.2218C5.7968 12.2011 5.634 12.1889 5.47085 12.1853L5.47192 12.1841ZM5.47085 11.689C6.18677 11.7072 6.88893 11.8764 7.52447 12.1837C8.15604 12.4911 8.71584 12.9121 9.17146 13.4223C9.64773 13.9539 10.0186 14.5602 10.2669 15.2127C10.7985 16.6172 10.7985 18.1487 10.2669 19.5532C10.0184 20.2076 9.64754 20.8159 9.17146 21.3502C8.71577 21.8627 8.15604 22.2867 7.52426 22.5978C6.88955 22.9088 6.18751 23.0822 5.47064 23.1051C4.74935 23.1271 4.03232 22.994 3.37524 22.7162C2.7119 22.4334 2.11847 22.0261 1.63214 21.5198C1.1157 20.9836 0.711497 20.3623 0.440373 19.6879C-0.146832 18.2196 -0.146832 16.6037 0.440373 15.1355C0.711763 14.4591 1.11588 13.8354 1.63214 13.2965C2.11832 12.7874 2.7116 12.3766 3.37524 12.0895C4.03181 11.8078 4.74921 11.6705 5.47192 11.6882L5.47085 11.689Z" fill="#922A2E"/>
<path d="M5.47153 18.8001L3.79279 15.5446L4.19132 15.303L5.57404 17.9774L11.3798 11.6251L11.7313 11.9737L5.47153 18.8001Z" fill="#922A2E"/>
<path d="M85.2678 65.1432L82.259 65.1323L83.2292 72.4506L85.2678 72.4601V65.1432Z" fill="#9E616A"/>
<path d="M85.7876 74.3017L79.218 74.2694V74.1921C79.2179 74.0352 79.2343 73.8786 79.267 73.7246C79.3316 73.4209 79.4604 73.1321 79.6458 72.8751C79.8342 72.6145 80.0756 72.391 80.3564 72.217C80.6334 72.0455 80.9442 71.9269 81.2709 71.8681C81.4365 71.8385 81.6048 71.824 81.7734 71.825V71.825L85.7876 71.8434V74.3017Z" fill="#2F2E41"/>
<path d="M75.634 65.1085L72.6339 65.0975L73.601 72.4059L75.634 72.4154V65.1085Z" fill="#9E616A"/>
<path d="M76.1525 74.2541L69.6002 74.222V74.1448C69.6001 73.9881 69.6165 73.8317 69.6492 73.678C69.7136 73.3747 69.842 73.0863 70.0269 72.8296C70.2147 72.5693 70.4555 72.3459 70.7358 72.172C71.0121 72.0009 71.3221 71.8826 71.648 71.824C71.8131 71.7944 71.9811 71.78 72.1493 71.7809V71.7809L76.1525 71.7992V74.2541Z" fill="#2F2E41"/>
<path d="M75.5066 35.1969L70.4616 52.7227L72.3082 69.5225L76.397 69.6275L75.5067 54.4582L80.6076 46.8881L81.7139 69.7307L85.4228 69.4866L87.486 49.8465C88.1868 48.313 88.7007 46.7112 89.0182 45.0711C89.2677 43.7836 89.389 42.4776 89.3806 41.1694C89.3764 40.2887 89.3037 39.4095 89.1631 38.5386C89.1128 38.214 89.0448 37.892 88.9593 37.5739L87.455 36.1545L75.5066 35.1969Z" fill="#2F2E41"/>
<path d="M82.1909 38.1279C81.3424 38.1279 80.5463 38.1026 79.8245 38.0525C79.0871 38.0054 78.3536 37.9156 77.6282 37.7834C77.0106 37.6761 76.4092 37.4998 75.8369 37.2584C75.3762 37.0732 74.9756 36.7789 74.675 36.4049L74.6406 36.3583L76.0196 28.0045L77.5066 18.6116C77.6045 17.9901 77.9445 17.4237 78.4619 17.0203C78.9793 16.617 79.6379 16.4048 80.3125 16.4242L84.9696 16.557C85.3188 16.567 85.6624 16.6421 85.9798 16.778C86.2973 16.9138 86.5822 17.1076 86.8177 17.3479C87.0532 17.5882 87.2345 17.87 87.3509 18.1767C87.4672 18.4834 87.5162 18.8087 87.4949 19.1333L86.8836 28.4746L89.1386 37.6888L88.979 37.7096C88.9147 37.7175 88.6672 37.7479 88.2795 37.7885C87.7728 37.8415 87.2554 37.8893 86.7417 37.9305C86.015 37.9889 85.3038 38.0347 84.628 38.0669C83.7709 38.1075 82.9494 38.1272 82.1909 38.1279Z" fill="#CCCCCC"/>
<path d="M79.6065 14.7644C79.6053 14.7644 79.6041 14.7644 79.6028 14.7644C79.5051 14.7643 79.4084 14.7463 79.3181 14.7115C79.2279 14.6766 79.1459 14.6256 79.0769 14.5612C79.0078 14.4969 78.9531 14.4205 78.9157 14.3364C78.8784 14.2524 78.8592 14.1623 78.8593 14.0713V10.2063C78.8586 9.51386 79.0074 8.82833 79.297 8.19049C79.8641 6.94579 80.9253 5.9528 82.2595 5.41847C83.1033 5.08156 84.0237 4.94472 84.9383 5.02019C85.8529 5.09566 86.733 5.38109 87.5 5.85093C88.267 6.32076 88.8969 6.96032 89.3332 7.71235C89.7695 8.46438 89.9986 9.30539 90 10.1601V14.031C90.0001 14.1242 89.9801 14.2164 89.9411 14.3022C89.8646 14.4695 89.7217 14.6029 89.5421 14.6745C89.4499 14.7111 89.3508 14.7301 89.2506 14.7303L79.6059 14.7644H79.6065Z" fill="#2F2E41"/>
<path d="M86.9448 8.88084C87.3333 9.54135 87.5028 10.2942 87.432 11.0444C87.3611 11.7945 87.053 12.5083 86.5465 13.0955C86.0401 13.6827 85.3581 14.1171 84.5867 14.3437C83.8152 14.5704 82.9889 14.5791 82.2121 14.3689C81.6978 14.2313 81.2178 14.0001 80.8002 13.6886C80.3825 13.3771 80.0354 12.9915 79.7789 12.5543C79.3913 11.8941 79.2224 11.1418 79.2935 10.3923C79.3646 9.64288 79.6724 8.9298 80.1783 8.34299C80.6841 7.75618 81.3653 7.32192 82.1359 7.09496C82.9064 6.868 83.732 6.85851 84.5084 7.06768C85.0232 7.20476 85.5037 7.43564 85.9219 7.74691C86.3402 8.05819 86.6879 8.44366 86.9448 8.88099V8.88084Z" fill="#9E616A"/>
<path d="M77.5424 10.521C77.5418 9.97331 77.6596 9.43115 77.8886 8.92669C78.337 7.94244 79.1762 7.15728 80.2313 6.73493C80.7726 6.51902 81.355 6.40668 81.9439 6.40458L82.775 6.4007C82.7843 6.40065 82.7936 6.40063 82.803 6.40064C83.3784 6.40097 83.9482 6.5068 84.4797 6.71209C85.0112 6.91739 85.4941 7.21813 85.9007 7.59714C86.3074 7.97614 86.6298 8.426 86.8497 8.92102C87.0696 9.41603 87.1826 9.94652 87.1823 10.4822V10.5596L85.4242 10.5662L84.8248 9.00727L84.7049 10.5692L83.7969 10.573L83.4946 9.78645L83.434 10.574L77.5431 10.5985L77.5424 10.521Z" fill="#2F2E41"/>
<path d="M68.4648 18.6516C68.1943 18.7132 67.9413 18.8286 67.7233 18.9899C67.5529 19.1154 67.4072 19.2674 67.2927 19.4393C67.0668 19.7795 66.9673 20.1793 67.0095 20.5773C67.0307 20.7783 67.0893 20.9744 67.1826 21.1568C67.2976 21.3841 67.4631 21.5861 67.6681 21.7495C67.8732 21.9129 68.1131 22.034 68.3721 22.1047C68.6311 22.1754 68.9033 22.1941 69.1707 22.1597C69.438 22.1253 69.6945 22.0385 69.9232 21.905C69.9401 21.8949 69.9567 21.8846 69.9733 21.8742C69.9898 21.8637 70.006 21.8531 70.022 21.8422C70.038 21.8314 70.0538 21.8203 70.0692 21.8091C70.0847 21.7979 70.1001 21.7865 70.1154 21.775L79.8163 24.9889C80.1148 25.0877 80.4397 25.0936 80.7421 25.0057C81.0445 24.9178 81.308 24.7408 81.493 24.5014L83.7929 21.5372L81.0123 19.7942L79.5531 21.3373L70.6751 19.6933C70.6655 19.6719 70.6554 19.6506 70.645 19.6294C70.6347 19.6082 70.6238 19.5871 70.6126 19.5661C70.6011 19.5451 70.5893 19.5243 70.5771 19.5035C70.5649 19.4828 70.5521 19.4622 70.5385 19.4418C70.3267 19.1232 70.012 18.8752 69.6395 18.7333C69.267 18.5913 68.8558 18.5627 68.4648 18.6516Z" fill="#9E616A"/>
<path d="M81.7097 20.3642C81.9999 20.0271 82.4056 19.5894 82.8178 19.1553C83.23 18.7211 83.6484 18.2908 83.9639 17.969C84.2795 17.6471 84.4918 17.4337 84.4918 17.4337C84.7831 17.0238 85.2178 16.7203 85.7222 16.5749C86.2265 16.4295 86.7694 16.4511 87.2587 16.636C87.7479 16.8209 88.1532 17.1578 88.4059 17.5893C88.6585 18.0209 88.7429 18.5206 88.6446 19.0035C88.5885 19.2816 88.4725 19.5461 88.3037 19.7813C88.3037 19.7813 87.9872 20.1668 87.5095 20.7423C87.0318 21.3177 86.3926 22.0837 85.7478 22.8452C85.1031 23.6068 84.4521 24.3644 83.9501 24.9236C83.4481 25.4828 83.0949 25.8441 83.0451 25.8131L81.2942 20.9682C81.2444 20.9373 81.4195 20.7014 81.7097 20.3642Z" fill="#CCCCCC"/>
<path d="M82.7489 14.6425C82.7214 14.7674 82.7321 14.8971 82.7798 15.0166C82.8037 15.0778 82.8367 15.1356 82.8779 15.1883C82.9131 15.2331 82.9539 15.274 82.9995 15.3099C83.1344 15.416 83.3055 15.4739 83.4821 15.4732C83.4931 15.4731 83.5041 15.4728 83.5151 15.4724C83.5261 15.4719 83.5372 15.4712 83.5482 15.4702C83.5593 15.4694 83.5703 15.4682 83.5813 15.4668C83.5923 15.4653 83.6034 15.4637 83.6145 15.4619L84.2385 15.3563L85.0979 13.6471V15.2127L87.9348 14.7373V8.09375L83.1789 8.11501L83.2965 8.24212C83.6868 8.66863 83.943 9.18709 84.0371 9.74045C84.1294 10.3009 84.1178 10.872 84.0029 11.4288C83.8912 11.9922 83.7216 12.5444 83.4965 13.0776C83.2997 13.5501 83.0739 14.0115 82.82 14.4598C82.7873 14.5173 82.7633 14.5788 82.7489 14.6425V14.6425Z" fill="#2F2E41"/>
<path d="M71.5412 38.9919C71.7674 39.342 72.1238 39.6025 72.5428 39.7241C72.9618 39.8457 73.4141 39.8199 73.814 39.6515C74.2139 39.4831 74.5334 39.1839 74.7119 38.8107C74.8904 38.4375 74.9155 38.0163 74.7824 37.627L81.7032 24.3916L78.3904 22.5222L72.4135 36.5808C72.3907 36.5891 72.3682 36.5978 72.346 36.6068C72.3239 36.6159 72.3018 36.6253 72.2798 36.6352C72.2578 36.6451 72.236 36.6554 72.2143 36.6663C72.1927 36.6772 72.1712 36.6887 72.1499 36.7007C71.7428 36.9294 71.45 37.2992 71.3358 37.7288C71.2217 38.1585 71.2955 38.6127 71.541 38.9917L71.5412 38.9919Z" fill="#9E616A"/>
<path d="M80.3821 29.4952L75.4655 28.3221C75.4655 28.3221 75.626 27.9844 75.8869 27.4247C76.1478 26.8651 76.5123 26.0848 76.9224 25.1988C77.3324 24.3128 77.7874 23.3229 78.2317 22.3443C78.6761 21.3658 79.1083 20.399 79.4722 19.561C79.8362 18.723 80.2497 18.2211 80.6653 17.9398C81.0092 17.6965 81.4424 17.5893 81.8708 17.6415C82.2037 17.6876 82.522 17.8004 82.8036 17.972C82.9369 18.0492 83.0623 18.1378 83.1781 18.2366L84.318 20.1663L80.3821 29.4952Z" fill="#CCCCCC"/>
</g>
<defs>
<clipPath id="clip0">
<rect width="99" height="96" fill="white"/>
</clipPath>
</defs>
</svg>
